<svg width="45" height="46" viewBox="0 0 45 46" fill="none" xmlns="http://www.w3.org/2000/svg">
    <circle cx="22.5" cy="23" r="22" stroke="black" stroke-dasharray="5 5"/>
    <path d="M19.4864 29.123L31.8435 16.4234C32.0563 16.2048 32.3089 16.0931 32.6014 16.0884C32.8939 16.0837 33.1511 16.1953 33.373 16.4234C33.5949 16.6515 33.7059 16.9134 33.7059 17.2093C33.7059 17.5052 33.5949 17.7672 33.373 17.9953L20.3914 31.3367C20.1329 31.6024 19.8312 31.7353 19.4864 31.7353C19.1416 31.7353 18.84 31.6024 18.5814 31.3367L12.6092 25.1989C12.3964 24.9803 12.2914 24.7206 12.2942 24.42C12.2969 24.1194 12.4093 23.8551 12.6311 23.627C12.8531 23.399 13.108 23.2849 13.3959 23.2849C13.6838 23.2849 13.9387 23.399 14.1606 23.627L19.4864 29.123Z" fill="black"/>
</svg>

